<svg height="512" viewBox="0 0 128 128" width="512" xmlns="http://www.w3.org/2000/svg"><g><g fill="#e6bb5a"><path d="m68.31 13.486-15.334 15.334a4.348 4.348 0 0 0 6.149 6.15l15.335-15.334a4.349 4.349 0 0 0 -6.15-6.15z"/><path d="m43.232 11.729-15.332 15.334a4.349 4.349 0 0 0 6.15 6.15l15.332-15.334a4.349 4.349 0 1 0 -6.15-6.15z"/><path d="m110.12 78.616-15.334 15.335a4.348 4.348 0 0 0 6.149 6.149l15.334-15.334a4.348 4.348 0 0 0 -6.149-6.15z"/><path d="m108.363 53.539-15.335 15.334a4.349 4.349 0 0 0 6.15 6.15l15.334-15.335a4.348 4.348 0 0 0 -6.149-6.149z"/></g><g fill="#3e6d8f"><path d="m11.506 29.252a5.617 5.617 0 0 0 3.91 6.56l48.834 14.346 23.8-22.2-70.8-3.143a5.617 5.617 0 0 0 -5.744 4.437z"/><path d="m77.84 63.748 14.346 48.834a5.617 5.617 0 0 0 11-1.832l-3.144-70.8z"/></g><g fill="#3e6d8f"><path d="m7.33 82a5.078 5.078 0 0 0 2.222 3.7l17.188 11.531 11.822-18.293-25.687-2.511a5.078 5.078 0 0 0 -5.545 5.573z"/><path d="m49.061 89.437-18.293 11.821 11.532 17.189a5.077 5.077 0 0 0 9.268-3.323z"/></g><path d="m115.758 7.331a30.767 30.767 0 0 0 -23.653 9.638l-52.505 55.811a56.175 56.175 0 0 0 -9.939 14.307c-2.411 5.08-3.555 9.713-2.22 13.474 3.77 1.341 8.4.193 13.488-2.225a56.169 56.169 0 0 0 14.281-9.927l55.818-52.516a30.7 30.7 0 0 0 9.642-23.654 5.158 5.158 0 0 0 -4.912-4.908z" fill="#e8ece1"/><path d="m22.274 105.724a56.672 56.672 0 0 0 17.7-11.793c8.145-8.146 8.386-14.3 8.386-14.3s-6.151.24-14.3 8.386a56.654 56.654 0 0 0 -11.786 17.707z" fill="#e6bb5a"/></g></svg>